<mxfile host="app.diagrams.net" modified="2024-05-13T04:25:58.323Z" agent="Mozilla/5.0 (Windows NT 10.0; Win64; x64) AppleWebKit/537.36 (KHTML, like Gecko) Chrome/124.0.0.0 Safari/537.36" etag="DEaAQLMPmAUFgD78yPb_" version="24.4.0" type="github" pages="2">
  <diagram name="第 1 页" id="EGxzH5xs3cO7tH5hkBDh">
    <mxGraphModel dx="1167" dy="580" grid="1" gridSize="10" guides="1" tooltips="1" connect="1" arrows="1" fold="1" page="1" pageScale="1" pageWidth="827" pageHeight="1169" math="0" shadow="0">
      <root>
        <mxCell id="0" />
        <mxCell id="1" parent="0" />
        <mxCell id="B4zDRRMBpd5nmt5ICbeN-32" value="" style="edgeStyle=orthogonalEdgeStyle;rounded=0;orthogonalLoop=1;jettySize=auto;html=1;endArrow=none;endFill=0;" edge="1" parent="1" source="B4zDRRMBpd5nmt5ICbeN-1">
          <mxGeometry relative="1" as="geometry">
            <mxPoint x="200" y="762" as="targetPoint" />
          </mxGeometry>
        </mxCell>
        <mxCell id="B4zDRRMBpd5nmt5ICbeN-1" value="User" style="swimlane;fontStyle=0;childLayout=stackLayout;horizontal=1;startSize=26;fillColor=none;horizontalStack=0;resizeParent=1;resizeParentMax=0;resizeLast=0;collapsible=1;marginBottom=0;whiteSpace=wrap;html=1;" vertex="1" parent="1">
          <mxGeometry x="130" y="820" width="140" height="52" as="geometry">
            <mxRectangle x="60" y="100" width="70" height="30" as="alternateBounds" />
          </mxGeometry>
        </mxCell>
        <mxCell id="B4zDRRMBpd5nmt5ICbeN-2" value="&amp;nbsp;" style="text;strokeColor=none;fillColor=none;align=left;verticalAlign=top;spacingLeft=4;spacingRight=4;overflow=hidden;rotatable=0;points=[[0,0.5],[1,0.5]];portConstraint=eastwest;whiteSpace=wrap;html=1;" vertex="1" parent="B4zDRRMBpd5nmt5ICbeN-1">
          <mxGeometry y="26" width="140" height="26" as="geometry" />
        </mxCell>
        <mxCell id="B4zDRRMBpd5nmt5ICbeN-9" value="Administrator" style="swimlane;fontStyle=0;childLayout=stackLayout;horizontal=1;startSize=26;fillColor=none;horizontalStack=0;resizeParent=1;resizeParentMax=0;resizeLast=0;collapsible=1;marginBottom=0;whiteSpace=wrap;html=1;" vertex="1" parent="1">
          <mxGeometry x="130" y="930" width="140" height="52" as="geometry">
            <mxRectangle x="60" y="100" width="70" height="30" as="alternateBounds" />
          </mxGeometry>
        </mxCell>
        <mxCell id="B4zDRRMBpd5nmt5ICbeN-10" value="&amp;nbsp;" style="text;strokeColor=none;fillColor=none;align=left;verticalAlign=top;spacingLeft=4;spacingRight=4;overflow=hidden;rotatable=0;points=[[0,0.5],[1,0.5]];portConstraint=eastwest;whiteSpace=wrap;html=1;" vertex="1" parent="B4zDRRMBpd5nmt5ICbeN-9">
          <mxGeometry y="26" width="140" height="26" as="geometry" />
        </mxCell>
        <mxCell id="B4zDRRMBpd5nmt5ICbeN-11" value="Doctor" style="swimlane;fontStyle=0;childLayout=stackLayout;horizontal=1;startSize=26;fillColor=none;horizontalStack=0;resizeParent=1;resizeParentMax=0;resizeLast=0;collapsible=1;marginBottom=0;whiteSpace=wrap;html=1;" vertex="1" parent="1">
          <mxGeometry x="310" y="930" width="140" height="52" as="geometry">
            <mxRectangle x="60" y="100" width="70" height="30" as="alternateBounds" />
          </mxGeometry>
        </mxCell>
        <mxCell id="B4zDRRMBpd5nmt5ICbeN-12" value="&amp;nbsp;" style="text;strokeColor=none;fillColor=none;align=left;verticalAlign=top;spacingLeft=4;spacingRight=4;overflow=hidden;rotatable=0;points=[[0,0.5],[1,0.5]];portConstraint=eastwest;whiteSpace=wrap;html=1;" vertex="1" parent="B4zDRRMBpd5nmt5ICbeN-11">
          <mxGeometry y="26" width="140" height="26" as="geometry" />
        </mxCell>
        <mxCell id="B4zDRRMBpd5nmt5ICbeN-14" value="Citizen" style="swimlane;fontStyle=0;childLayout=stackLayout;horizontal=1;startSize=26;fillColor=none;horizontalStack=0;resizeParent=1;resizeParentMax=0;resizeLast=0;collapsible=1;marginBottom=0;whiteSpace=wrap;html=1;" vertex="1" parent="1">
          <mxGeometry x="490" y="930" width="140" height="52" as="geometry">
            <mxRectangle x="60" y="100" width="70" height="30" as="alternateBounds" />
          </mxGeometry>
        </mxCell>
        <mxCell id="B4zDRRMBpd5nmt5ICbeN-15" value="&amp;nbsp;" style="text;strokeColor=none;fillColor=none;align=left;verticalAlign=top;spacingLeft=4;spacingRight=4;overflow=hidden;rotatable=0;points=[[0,0.5],[1,0.5]];portConstraint=eastwest;whiteSpace=wrap;html=1;" vertex="1" parent="B4zDRRMBpd5nmt5ICbeN-14">
          <mxGeometry y="26" width="140" height="26" as="geometry" />
        </mxCell>
        <mxCell id="B4zDRRMBpd5nmt5ICbeN-17" value="HospitalAdministrator" style="swimlane;fontStyle=0;childLayout=stackLayout;horizontal=1;startSize=26;fillColor=none;horizontalStack=0;resizeParent=1;resizeParentMax=0;resizeLast=0;collapsible=1;marginBottom=0;whiteSpace=wrap;html=1;" vertex="1" parent="1">
          <mxGeometry x="130" y="1042" width="140" height="52" as="geometry">
            <mxRectangle x="60" y="100" width="70" height="30" as="alternateBounds" />
          </mxGeometry>
        </mxCell>
        <mxCell id="B4zDRRMBpd5nmt5ICbeN-18" value="&amp;nbsp;" style="text;strokeColor=none;fillColor=none;align=left;verticalAlign=top;spacingLeft=4;spacingRight=4;overflow=hidden;rotatable=0;points=[[0,0.5],[1,0.5]];portConstraint=eastwest;whiteSpace=wrap;html=1;" vertex="1" parent="B4zDRRMBpd5nmt5ICbeN-17">
          <mxGeometry y="26" width="140" height="26" as="geometry" />
        </mxCell>
        <mxCell id="B4zDRRMBpd5nmt5ICbeN-21" value="Extends" style="endArrow=block;endSize=16;endFill=0;html=1;rounded=0;exitX=0.5;exitY=0;exitDx=0;exitDy=0;" edge="1" parent="1" source="B4zDRRMBpd5nmt5ICbeN-17">
          <mxGeometry x="0.0087" width="160" relative="1" as="geometry">
            <mxPoint x="230" y="1042" as="sourcePoint" />
            <mxPoint x="200" y="982" as="targetPoint" />
            <mxPoint as="offset" />
          </mxGeometry>
        </mxCell>
        <mxCell id="B4zDRRMBpd5nmt5ICbeN-22" value="Extends" style="endArrow=block;endSize=16;endFill=0;html=1;rounded=0;exitX=0.5;exitY=0;exitDx=0;exitDy=0;" edge="1" parent="1" source="B4zDRRMBpd5nmt5ICbeN-9" target="B4zDRRMBpd5nmt5ICbeN-2">
          <mxGeometry width="160" relative="1" as="geometry">
            <mxPoint x="320" y="900" as="sourcePoint" />
            <mxPoint x="480" y="900" as="targetPoint" />
          </mxGeometry>
        </mxCell>
        <mxCell id="B4zDRRMBpd5nmt5ICbeN-26" value="" style="endArrow=none;html=1;rounded=0;" edge="1" parent="1">
          <mxGeometry width="50" height="50" relative="1" as="geometry">
            <mxPoint x="200" y="910" as="sourcePoint" />
            <mxPoint x="380" y="910" as="targetPoint" />
          </mxGeometry>
        </mxCell>
        <mxCell id="B4zDRRMBpd5nmt5ICbeN-27" value="" style="endArrow=none;html=1;rounded=0;exitX=0.5;exitY=0;exitDx=0;exitDy=0;" edge="1" parent="1" source="B4zDRRMBpd5nmt5ICbeN-11">
          <mxGeometry width="50" height="50" relative="1" as="geometry">
            <mxPoint x="380" y="930" as="sourcePoint" />
            <mxPoint x="380" y="910" as="targetPoint" />
          </mxGeometry>
        </mxCell>
        <mxCell id="B4zDRRMBpd5nmt5ICbeN-28" value="" style="endArrow=none;html=1;rounded=0;" edge="1" parent="1">
          <mxGeometry width="50" height="50" relative="1" as="geometry">
            <mxPoint x="380" y="910" as="sourcePoint" />
            <mxPoint x="560" y="910" as="targetPoint" />
          </mxGeometry>
        </mxCell>
        <mxCell id="B4zDRRMBpd5nmt5ICbeN-29" value="" style="endArrow=none;html=1;rounded=0;" edge="1" parent="1" source="B4zDRRMBpd5nmt5ICbeN-14">
          <mxGeometry width="50" height="50" relative="1" as="geometry">
            <mxPoint x="390" y="940" as="sourcePoint" />
            <mxPoint x="560" y="910" as="targetPoint" />
          </mxGeometry>
        </mxCell>
        <mxCell id="B4zDRRMBpd5nmt5ICbeN-37" value="UserLibrary" style="swimlane;fontStyle=0;childLayout=stackLayout;horizontal=1;startSize=26;fillColor=none;horizontalStack=0;resizeParent=1;resizeParentMax=0;resizeLast=0;collapsible=1;marginBottom=0;whiteSpace=wrap;html=1;" vertex="1" parent="1">
          <mxGeometry x="120" y="680" width="160" height="80" as="geometry" />
        </mxCell>
        <mxCell id="B4zDRRMBpd5nmt5ICbeN-38" value="+verifyUserValidity(account,&lt;div&gt;password)&lt;/div&gt;&lt;div&gt;+saveUserInfo()&lt;/div&gt;" style="text;strokeColor=none;fillColor=none;align=left;verticalAlign=top;spacingLeft=4;spacingRight=4;overflow=hidden;rotatable=0;points=[[0,0.5],[1,0.5]];portConstraint=eastwest;whiteSpace=wrap;html=1;" vertex="1" parent="B4zDRRMBpd5nmt5ICbeN-37">
          <mxGeometry y="26" width="160" height="54" as="geometry" />
        </mxCell>
        <mxCell id="zvkdjGWx2xhCYd6H2U0A-26" value="" style="edgeStyle=orthogonalEdgeStyle;rounded=0;orthogonalLoop=1;jettySize=auto;html=1;endArrow=none;endFill=0;" edge="1" parent="1" source="zvkdjGWx2xhCYd6H2U0A-1">
          <mxGeometry relative="1" as="geometry">
            <mxPoint x="200" y="570" as="targetPoint" />
          </mxGeometry>
        </mxCell>
        <mxCell id="zvkdjGWx2xhCYd6H2U0A-1" value="LoginUI" style="swimlane;fontStyle=0;childLayout=stackLayout;horizontal=1;startSize=26;fillColor=none;horizontalStack=0;resizeParent=1;resizeParentMax=0;resizeLast=0;collapsible=1;marginBottom=0;whiteSpace=wrap;html=1;" vertex="1" parent="1">
          <mxGeometry x="120" y="465" width="160" height="50" as="geometry" />
        </mxCell>
        <mxCell id="zvkdjGWx2xhCYd6H2U0A-31" value="" style="edgeStyle=orthogonalEdgeStyle;rounded=0;orthogonalLoop=1;jettySize=auto;html=1;endArrow=none;endFill=0;" edge="1" parent="1" source="zvkdjGWx2xhCYd6H2U0A-3" target="zvkdjGWx2xhCYd6H2U0A-29">
          <mxGeometry relative="1" as="geometry" />
        </mxCell>
        <mxCell id="zvkdjGWx2xhCYd6H2U0A-3" value="SetUI" style="swimlane;fontStyle=0;childLayout=stackLayout;horizontal=1;startSize=26;fillColor=none;horizontalStack=0;resizeParent=1;resizeParentMax=0;resizeLast=0;collapsible=1;marginBottom=0;whiteSpace=wrap;html=1;" vertex="1" parent="1">
          <mxGeometry x="320" y="465" width="160" height="50" as="geometry" />
        </mxCell>
        <mxCell id="zvkdjGWx2xhCYd6H2U0A-58" value="" style="edgeStyle=orthogonalEdgeStyle;rounded=0;orthogonalLoop=1;jettySize=auto;html=1;endArrow=none;endFill=0;" edge="1" parent="1" source="zvkdjGWx2xhCYd6H2U0A-5" target="zvkdjGWx2xhCYd6H2U0A-56">
          <mxGeometry relative="1" as="geometry" />
        </mxCell>
        <mxCell id="zvkdjGWx2xhCYd6H2U0A-5" value="ReferenceUI" style="swimlane;fontStyle=0;childLayout=stackLayout;horizontal=1;startSize=26;fillColor=none;horizontalStack=0;resizeParent=1;resizeParentMax=0;resizeLast=0;collapsible=1;marginBottom=0;whiteSpace=wrap;html=1;" vertex="1" parent="1">
          <mxGeometry x="2120" y="465" width="160" height="50" as="geometry" />
        </mxCell>
        <mxCell id="zvkdjGWx2xhCYd6H2U0A-55" value="" style="edgeStyle=orthogonalEdgeStyle;rounded=0;orthogonalLoop=1;jettySize=auto;html=1;endArrow=none;endFill=0;" edge="1" parent="1" source="zvkdjGWx2xhCYd6H2U0A-7" target="zvkdjGWx2xhCYd6H2U0A-53">
          <mxGeometry relative="1" as="geometry" />
        </mxCell>
        <mxCell id="zvkdjGWx2xhCYd6H2U0A-7" value="AnalyzeUI" style="swimlane;fontStyle=0;childLayout=stackLayout;horizontal=1;startSize=26;fillColor=none;horizontalStack=0;resizeParent=1;resizeParentMax=0;resizeLast=0;collapsible=1;marginBottom=0;whiteSpace=wrap;html=1;" vertex="1" parent="1">
          <mxGeometry x="1920" y="465" width="160" height="50" as="geometry" />
        </mxCell>
        <mxCell id="zvkdjGWx2xhCYd6H2U0A-52" value="" style="edgeStyle=orthogonalEdgeStyle;rounded=0;orthogonalLoop=1;jettySize=auto;html=1;endArrow=none;endFill=0;" edge="1" parent="1" source="zvkdjGWx2xhCYd6H2U0A-9" target="zvkdjGWx2xhCYd6H2U0A-50">
          <mxGeometry relative="1" as="geometry" />
        </mxCell>
        <mxCell id="zvkdjGWx2xhCYd6H2U0A-9" value="Recognize&lt;span style=&quot;color: rgba(0, 0, 0, 0); font-family: monospace; font-size: 0px; text-align: start; text-wrap: nowrap;&quot;&gt;%3CmxGraphModel%3E%3Croot%3E%3CmxCell%20id%3D%220%22%2F%3E%3CmxCell%20id%3D%221%22%20parent%3D%220%22%2F%3E%3CmxCell%20id%3D%222%22%20value%3D%22SetUI%22%20style%3D%22swimlane%3BfontStyle%3D0%3BchildLayout%3DstackLayout%3Bhorizontal%3D1%3BstartSize%3D26%3BfillColor%3Dnone%3BhorizontalStack%3D0%3BresizeParent%3D1%3BresizeParentMax%3D0%3BresizeLast%3D0%3Bcollapsible%3D1%3BmarginBottom%3D0%3BwhiteSpace%3Dwrap%3Bhtml%3D1%3B%22%20vertex%3D%221%22%20parent%3D%221%22%3E%3CmxGeometry%20x%3D%22300%22%20y%3D%22540%22%20width%3D%22160%22%20height%3D%2250%22%20as%3D%22geometry%22%2F%3E%3C%2FmxCell%3E%3CmxCell%20id%3D%223%22%20value%3D%22%2Bset(information)%22%20style%3D%22text%3BstrokeColor%3Dnone%3BfillColor%3Dnone%3Balign%3Dleft%3BverticalAlign%3Dtop%3BspacingLeft%3D4%3BspacingRight%3D4%3Boverflow%3Dhidden%3Brotatable%3D0%3Bpoints%3D%5B%5B0%2C0.5%5D%2C%5B1%2C0.5%5D%5D%3BportConstraint%3Deastwest%3BwhiteSpace%3Dwrap%3Bhtml%3D1%3B%22%20vertex%3D%221%22%20parent%3D%222%22%3E%3CmxGeometry%20y%3D%2226%22%20width%3D%22160%22%20height%3D%2224%22%20as%3D%22geometry%22%2F%3E%3C%2FmxCell%3E%3C%2Froot%3E%3C%2FmxGraphModel%3E&lt;/span&gt;UI" style="swimlane;fontStyle=0;childLayout=stackLayout;horizontal=1;startSize=26;fillColor=none;horizontalStack=0;resizeParent=1;resizeParentMax=0;resizeLast=0;collapsible=1;marginBottom=0;whiteSpace=wrap;html=1;" vertex="1" parent="1">
          <mxGeometry x="1720" y="465" width="160" height="50" as="geometry" />
        </mxCell>
        <mxCell id="zvkdjGWx2xhCYd6H2U0A-49" value="" style="edgeStyle=orthogonalEdgeStyle;rounded=0;orthogonalLoop=1;jettySize=auto;html=1;endArrow=none;endFill=0;" edge="1" parent="1" source="zvkdjGWx2xhCYd6H2U0A-11" target="zvkdjGWx2xhCYd6H2U0A-47">
          <mxGeometry relative="1" as="geometry" />
        </mxCell>
        <mxCell id="zvkdjGWx2xhCYd6H2U0A-11" value="SearchUI" style="swimlane;fontStyle=0;childLayout=stackLayout;horizontal=1;startSize=26;fillColor=none;horizontalStack=0;resizeParent=1;resizeParentMax=0;resizeLast=0;collapsible=1;marginBottom=0;whiteSpace=wrap;html=1;" vertex="1" parent="1">
          <mxGeometry x="1520" y="465" width="160" height="50" as="geometry" />
        </mxCell>
        <mxCell id="zvkdjGWx2xhCYd6H2U0A-46" value="" style="edgeStyle=orthogonalEdgeStyle;rounded=0;orthogonalLoop=1;jettySize=auto;html=1;endArrow=none;endFill=0;" edge="1" parent="1" source="zvkdjGWx2xhCYd6H2U0A-13" target="zvkdjGWx2xhCYd6H2U0A-44">
          <mxGeometry relative="1" as="geometry" />
        </mxCell>
        <mxCell id="zvkdjGWx2xhCYd6H2U0A-13" value="EstablishUI" style="swimlane;fontStyle=0;childLayout=stackLayout;horizontal=1;startSize=26;fillColor=none;horizontalStack=0;resizeParent=1;resizeParentMax=0;resizeLast=0;collapsible=1;marginBottom=0;whiteSpace=wrap;html=1;" vertex="1" parent="1">
          <mxGeometry x="1320" y="465" width="160" height="50" as="geometry" />
        </mxCell>
        <mxCell id="zvkdjGWx2xhCYd6H2U0A-43" value="" style="edgeStyle=orthogonalEdgeStyle;rounded=0;orthogonalLoop=1;jettySize=auto;html=1;endArrow=none;endFill=0;" edge="1" parent="1" source="zvkdjGWx2xhCYd6H2U0A-15" target="zvkdjGWx2xhCYd6H2U0A-41">
          <mxGeometry relative="1" as="geometry" />
        </mxCell>
        <mxCell id="zvkdjGWx2xhCYd6H2U0A-15" value="ObtainUI" style="swimlane;fontStyle=0;childLayout=stackLayout;horizontal=1;startSize=26;fillColor=none;horizontalStack=0;resizeParent=1;resizeParentMax=0;resizeLast=0;collapsible=1;marginBottom=0;whiteSpace=wrap;html=1;" vertex="1" parent="1">
          <mxGeometry x="1120" y="465" width="160" height="55" as="geometry" />
        </mxCell>
        <mxCell id="zvkdjGWx2xhCYd6H2U0A-40" value="" style="edgeStyle=orthogonalEdgeStyle;rounded=0;orthogonalLoop=1;jettySize=auto;html=1;endArrow=none;endFill=0;" edge="1" parent="1" source="zvkdjGWx2xhCYd6H2U0A-17" target="zvkdjGWx2xhCYd6H2U0A-38">
          <mxGeometry relative="1" as="geometry" />
        </mxCell>
        <mxCell id="zvkdjGWx2xhCYd6H2U0A-17" value="ChatDoctorUI" style="swimlane;fontStyle=0;childLayout=stackLayout;horizontal=1;startSize=26;fillColor=none;horizontalStack=0;resizeParent=1;resizeParentMax=0;resizeLast=0;collapsible=1;marginBottom=0;whiteSpace=wrap;html=1;" vertex="1" parent="1">
          <mxGeometry x="920" y="465" width="160" height="50" as="geometry" />
        </mxCell>
        <mxCell id="zvkdjGWx2xhCYd6H2U0A-37" value="" style="edgeStyle=orthogonalEdgeStyle;rounded=0;orthogonalLoop=1;jettySize=auto;html=1;endArrow=none;endFill=0;" edge="1" parent="1" source="zvkdjGWx2xhCYd6H2U0A-19" target="zvkdjGWx2xhCYd6H2U0A-35">
          <mxGeometry relative="1" as="geometry" />
        </mxCell>
        <mxCell id="zvkdjGWx2xhCYd6H2U0A-19" value="ChatUI" style="swimlane;fontStyle=0;childLayout=stackLayout;horizontal=1;startSize=26;fillColor=none;horizontalStack=0;resizeParent=1;resizeParentMax=0;resizeLast=0;collapsible=1;marginBottom=0;whiteSpace=wrap;html=1;" vertex="1" parent="1">
          <mxGeometry x="720" y="465" width="160" height="50" as="geometry" />
        </mxCell>
        <mxCell id="zvkdjGWx2xhCYd6H2U0A-34" value="" style="edgeStyle=orthogonalEdgeStyle;rounded=0;orthogonalLoop=1;jettySize=auto;html=1;endArrow=none;endFill=0;" edge="1" parent="1" source="zvkdjGWx2xhCYd6H2U0A-21" target="zvkdjGWx2xhCYd6H2U0A-32">
          <mxGeometry relative="1" as="geometry" />
        </mxCell>
        <mxCell id="zvkdjGWx2xhCYd6H2U0A-21" value="BookingUI" style="swimlane;fontStyle=0;childLayout=stackLayout;horizontal=1;startSize=26;fillColor=none;horizontalStack=0;resizeParent=1;resizeParentMax=0;resizeLast=0;collapsible=1;marginBottom=0;whiteSpace=wrap;html=1;" vertex="1" parent="1">
          <mxGeometry x="520" y="465" width="170" height="50" as="geometry" />
        </mxCell>
        <mxCell id="zvkdjGWx2xhCYd6H2U0A-23" value="Text" style="text;html=1;align=center;verticalAlign=middle;resizable=0;points=[];autosize=1;strokeColor=none;fillColor=none;" vertex="1" parent="1">
          <mxGeometry x="235" y="1188" width="50" height="30" as="geometry" />
        </mxCell>
        <mxCell id="zvkdjGWx2xhCYd6H2U0A-24" value="LoginManager" style="swimlane;fontStyle=0;childLayout=stackLayout;horizontal=1;startSize=26;fillColor=none;horizontalStack=0;resizeParent=1;resizeParentMax=0;resizeLast=0;collapsible=1;marginBottom=0;whiteSpace=wrap;html=1;" vertex="1" parent="1">
          <mxGeometry x="120" y="570" width="160" height="50" as="geometry" />
        </mxCell>
        <mxCell id="zvkdjGWx2xhCYd6H2U0A-25" value="+login(account,password)" style="text;strokeColor=none;fillColor=none;align=left;verticalAlign=top;spacingLeft=4;spacingRight=4;overflow=hidden;rotatable=0;points=[[0,0.5],[1,0.5]];portConstraint=eastwest;whiteSpace=wrap;html=1;" vertex="1" parent="zvkdjGWx2xhCYd6H2U0A-24">
          <mxGeometry y="26" width="160" height="24" as="geometry" />
        </mxCell>
        <mxCell id="zvkdjGWx2xhCYd6H2U0A-28" value="" style="endArrow=none;html=1;rounded=0;exitX=0.5;exitY=0;exitDx=0;exitDy=0;" edge="1" parent="1" source="B4zDRRMBpd5nmt5ICbeN-37">
          <mxGeometry width="50" height="50" relative="1" as="geometry">
            <mxPoint x="80" y="600" as="sourcePoint" />
            <mxPoint x="200" y="620" as="targetPoint" />
          </mxGeometry>
        </mxCell>
        <mxCell id="zvkdjGWx2xhCYd6H2U0A-61" value="" style="edgeStyle=orthogonalEdgeStyle;rounded=0;orthogonalLoop=1;jettySize=auto;html=1;endArrow=none;endFill=0;" edge="1" parent="1" source="zvkdjGWx2xhCYd6H2U0A-29" target="zvkdjGWx2xhCYd6H2U0A-59">
          <mxGeometry relative="1" as="geometry" />
        </mxCell>
        <mxCell id="zvkdjGWx2xhCYd6H2U0A-29" value="SetManager" style="swimlane;fontStyle=0;childLayout=stackLayout;horizontal=1;startSize=26;fillColor=none;horizontalStack=0;resizeParent=1;resizeParentMax=0;resizeLast=0;collapsible=1;marginBottom=0;whiteSpace=wrap;html=1;" vertex="1" parent="1">
          <mxGeometry x="320" y="570" width="160" height="50" as="geometry" />
        </mxCell>
        <mxCell id="zvkdjGWx2xhCYd6H2U0A-30" value="+set(information)" style="text;strokeColor=none;fillColor=none;align=left;verticalAlign=top;spacingLeft=4;spacingRight=4;overflow=hidden;rotatable=0;points=[[0,0.5],[1,0.5]];portConstraint=eastwest;whiteSpace=wrap;html=1;" vertex="1" parent="zvkdjGWx2xhCYd6H2U0A-29">
          <mxGeometry y="26" width="160" height="24" as="geometry" />
        </mxCell>
        <mxCell id="zvkdjGWx2xhCYd6H2U0A-64" value="" style="edgeStyle=orthogonalEdgeStyle;rounded=0;orthogonalLoop=1;jettySize=auto;html=1;" edge="1" parent="1" source="zvkdjGWx2xhCYd6H2U0A-32" target="zvkdjGWx2xhCYd6H2U0A-62">
          <mxGeometry relative="1" as="geometry" />
        </mxCell>
        <mxCell id="zvkdjGWx2xhCYd6H2U0A-32" value="BookingManager" style="swimlane;fontStyle=0;childLayout=stackLayout;horizontal=1;startSize=26;fillColor=none;horizontalStack=0;resizeParent=1;resizeParentMax=0;resizeLast=0;collapsible=1;marginBottom=0;whiteSpace=wrap;html=1;" vertex="1" parent="1">
          <mxGeometry x="520" y="570" width="170" height="50" as="geometry" />
        </mxCell>
        <mxCell id="zvkdjGWx2xhCYd6H2U0A-33" value="+booking(hospitai,doctor,time)" style="text;strokeColor=none;fillColor=none;align=left;verticalAlign=top;spacingLeft=4;spacingRight=4;overflow=hidden;rotatable=0;points=[[0,0.5],[1,0.5]];portConstraint=eastwest;whiteSpace=wrap;html=1;" vertex="1" parent="zvkdjGWx2xhCYd6H2U0A-32">
          <mxGeometry y="26" width="170" height="24" as="geometry" />
        </mxCell>
        <mxCell id="zvkdjGWx2xhCYd6H2U0A-35" value="ChatManager" style="swimlane;fontStyle=0;childLayout=stackLayout;horizontal=1;startSize=26;fillColor=none;horizontalStack=0;resizeParent=1;resizeParentMax=0;resizeLast=0;collapsible=1;marginBottom=0;whiteSpace=wrap;html=1;" vertex="1" parent="1">
          <mxGeometry x="720" y="570" width="160" height="50" as="geometry" />
        </mxCell>
        <mxCell id="zvkdjGWx2xhCYd6H2U0A-36" value="+chat(message,audio&lt;span style=&quot;color: rgba(0, 0, 0, 0); font-family: monospace; font-size: 0px; text-wrap: nowrap;&quot;&gt;%3CmxGraphModel%3E%3Croot%3E%3CmxCell%20id%3D%220%22%2F%3E%3CmxCell%20id%3D%221%22%20parent%3D%220%22%2F%3E%3CmxCell%20id%3D%222%22%20value%3D%22SetUI%22%20style%3D%22swimlane%3BfontStyle%3D0%3BchildLayout%3DstackLayout%3Bhorizontal%3D1%3BstartSize%3D26%3BfillColor%3Dnone%3BhorizontalStack%3D0%3BresizeParent%3D1%3BresizeParentMax%3D0%3BresizeLast%3D0%3Bcollapsible%3D1%3BmarginBottom%3D0%3BwhiteSpace%3Dwrap%3Bhtml%3D1%3B%22%20vertex%3D%221%22%20parent%3D%221%22%3E%3CmxGeometry%20x%3D%22300%22%20y%3D%22540%22%20width%3D%22160%22%20height%3D%2250%22%20as%3D%22geometry%22%2F%3E%3C%2FmxCell%3E%3CmxCell%20id%3D%223%22%20value%3D%22%2Bset(information)%22%20style%3D%22text%3BstrokeColor%3Dnone%3BfillColor%3Dnone%3Balign%3Dleft%3BverticalAlign%3Dtop%3BspacingLeft%3D4%3BspacingRight%3D4%3Boverflow%3Dhidden%3Brotatable%3D0%3Bpoints%3D%5B%5B0%2C0.5%5D%2C%5B1%2C0.5%5D%5D%3BportConstraint%3Deastwest%3BwhiteSpace%3Dwrap%3Bhtml%3D1%3B%22%20vertex%3D%221%22%20parent%3D%222%22%3E%3CmxGeometry%20y%3D%2226%22%20width%3D%22160%22%20height%3D%2224%22%20as%3D%22geometry%22%2F%3E%3C%2FmxCell%3E%3C%2Froot%3E%3C%2FmxGraphModel%3E&lt;/span&gt;)" style="text;strokeColor=none;fillColor=none;align=left;verticalAlign=top;spacingLeft=4;spacingRight=4;overflow=hidden;rotatable=0;points=[[0,0.5],[1,0.5]];portConstraint=eastwest;whiteSpace=wrap;html=1;" vertex="1" parent="zvkdjGWx2xhCYd6H2U0A-35">
          <mxGeometry y="26" width="160" height="24" as="geometry" />
        </mxCell>
        <mxCell id="zvkdjGWx2xhCYd6H2U0A-38" value="ChatDoctorManager" style="swimlane;fontStyle=0;childLayout=stackLayout;horizontal=1;startSize=26;fillColor=none;horizontalStack=0;resizeParent=1;resizeParentMax=0;resizeLast=0;collapsible=1;marginBottom=0;whiteSpace=wrap;html=1;" vertex="1" parent="1">
          <mxGeometry x="920" y="570" width="160" height="50" as="geometry" />
        </mxCell>
        <mxCell id="zvkdjGWx2xhCYd6H2U0A-39" value="+chat(doctor,message,audio)" style="text;strokeColor=none;fillColor=none;align=left;verticalAlign=top;spacingLeft=4;spacingRight=4;overflow=hidden;rotatable=0;points=[[0,0.5],[1,0.5]];portConstraint=eastwest;whiteSpace=wrap;html=1;" vertex="1" parent="zvkdjGWx2xhCYd6H2U0A-38">
          <mxGeometry y="26" width="160" height="24" as="geometry" />
        </mxCell>
        <mxCell id="zvkdjGWx2xhCYd6H2U0A-41" value="ObtainManager" style="swimlane;fontStyle=0;childLayout=stackLayout;horizontal=1;startSize=26;fillColor=none;horizontalStack=0;resizeParent=1;resizeParentMax=0;resizeLast=0;collapsible=1;marginBottom=0;whiteSpace=wrap;html=1;" vertex="1" parent="1">
          <mxGeometry x="1120" y="570" width="160" height="80" as="geometry" />
        </mxCell>
        <mxCell id="zvkdjGWx2xhCYd6H2U0A-42" value="+obtain(device)&lt;div&gt;+obtain(hospitai,userName,&lt;/div&gt;&lt;div&gt;ID number)&lt;/div&gt;" style="text;strokeColor=none;fillColor=none;align=left;verticalAlign=top;spacingLeft=4;spacingRight=4;overflow=hidden;rotatable=0;points=[[0,0.5],[1,0.5]];portConstraint=eastwest;whiteSpace=wrap;html=1;" vertex="1" parent="zvkdjGWx2xhCYd6H2U0A-41">
          <mxGeometry y="26" width="160" height="54" as="geometry" />
        </mxCell>
        <mxCell id="zvkdjGWx2xhCYd6H2U0A-44" value="EstablishManager" style="swimlane;fontStyle=0;childLayout=stackLayout;horizontal=1;startSize=26;fillColor=none;horizontalStack=0;resizeParent=1;resizeParentMax=0;resizeLast=0;collapsible=1;marginBottom=0;whiteSpace=wrap;html=1;" vertex="1" parent="1">
          <mxGeometry x="1320" y="570" width="160" height="50" as="geometry" />
        </mxCell>
        <mxCell id="zvkdjGWx2xhCYd6H2U0A-45" value="+establish(information)" style="text;strokeColor=none;fillColor=none;align=left;verticalAlign=top;spacingLeft=4;spacingRight=4;overflow=hidden;rotatable=0;points=[[0,0.5],[1,0.5]];portConstraint=eastwest;whiteSpace=wrap;html=1;" vertex="1" parent="zvkdjGWx2xhCYd6H2U0A-44">
          <mxGeometry y="26" width="160" height="24" as="geometry" />
        </mxCell>
        <mxCell id="zvkdjGWx2xhCYd6H2U0A-47" value="SearchManager" style="swimlane;fontStyle=0;childLayout=stackLayout;horizontal=1;startSize=26;fillColor=none;horizontalStack=0;resizeParent=1;resizeParentMax=0;resizeLast=0;collapsible=1;marginBottom=0;whiteSpace=wrap;html=1;" vertex="1" parent="1">
          <mxGeometry x="1520" y="570" width="160" height="50" as="geometry" />
        </mxCell>
        <mxCell id="zvkdjGWx2xhCYd6H2U0A-48" value="+search(class)" style="text;strokeColor=none;fillColor=none;align=left;verticalAlign=top;spacingLeft=4;spacingRight=4;overflow=hidden;rotatable=0;points=[[0,0.5],[1,0.5]];portConstraint=eastwest;whiteSpace=wrap;html=1;" vertex="1" parent="zvkdjGWx2xhCYd6H2U0A-47">
          <mxGeometry y="26" width="160" height="24" as="geometry" />
        </mxCell>
        <mxCell id="zvkdjGWx2xhCYd6H2U0A-50" value="Recognize&lt;span style=&quot;color: rgba(0, 0, 0, 0); font-family: monospace; font-size: 0px; text-align: start; text-wrap: nowrap;&quot;&gt;%3CmxGraphModel%3E%3Croot%3E%3CmxCell%20id%3D%220%22%2F%3E%3CmxCell%20id%3D%221%22%20parent%3D%220%22%2F%3E%3CmxCell%20id%3D%222%22%20value%3D%22SetUI%22%20style%3D%22swimlane%3BfontStyle%3D0%3BchildLayout%3DstackLayout%3Bhorizontal%3D1%3BstartSize%3D26%3BfillColor%3Dnone%3BhorizontalStack%3D0%3BresizeParent%3D1%3BresizeParentMax%3D0%3BresizeLast%3D0%3Bcollapsible%3D1%3BmarginBottom%3D0%3BwhiteSpace%3Dwrap%3Bhtml%3D1%3B%22%20vertex%3D%221%22%20parent%3D%221%22%3E%3CmxGeometry%20x%3D%22300%22%20y%3D%22540%22%20width%3D%22160%22%20height%3D%2250%22%20as%3D%22geometry%22%2F%3E%3C%2FmxCell%3E%3CmxCell%20id%3D%223%22%20value%3D%22%2Bset(information)%22%20style%3D%22text%3BstrokeColor%3Dnone%3BfillColor%3Dnone%3Balign%3Dleft%3BverticalAlign%3Dtop%3BspacingLeft%3D4%3BspacingRight%3D4%3Boverflow%3Dhidden%3Brotatable%3D0%3Bpoints%3D%5B%5B0%2C0.5%5D%2C%5B1%2C0.5%5D%5D%3BportConstraint%3Deastwest%3BwhiteSpace%3Dwrap%3Bhtml%3D1%3B%22%20vertex%3D%221%22%20parent%3D%222%22%3E%3CmxGeometry%20y%3D%2226%22%20width%3D%22160%22%20height%3D%2224%22%20as%3D%22geometry%22%2F%3E%3C%2FmxCell%3E%3C%2Froot%3E%3C%2FmxGraphModel%3E&lt;/span&gt;Manager" style="swimlane;fontStyle=0;childLayout=stackLayout;horizontal=1;startSize=26;fillColor=none;horizontalStack=0;resizeParent=1;resizeParentMax=0;resizeLast=0;collapsible=1;marginBottom=0;whiteSpace=wrap;html=1;" vertex="1" parent="1">
          <mxGeometry x="1720" y="570" width="160" height="50" as="geometry" />
        </mxCell>
        <mxCell id="zvkdjGWx2xhCYd6H2U0A-51" value="+recognize(image)" style="text;strokeColor=none;fillColor=none;align=left;verticalAlign=top;spacingLeft=4;spacingRight=4;overflow=hidden;rotatable=0;points=[[0,0.5],[1,0.5]];portConstraint=eastwest;whiteSpace=wrap;html=1;" vertex="1" parent="zvkdjGWx2xhCYd6H2U0A-50">
          <mxGeometry y="26" width="160" height="24" as="geometry" />
        </mxCell>
        <mxCell id="zvkdjGWx2xhCYd6H2U0A-53" value="AnalyzeManager" style="swimlane;fontStyle=0;childLayout=stackLayout;horizontal=1;startSize=26;fillColor=none;horizontalStack=0;resizeParent=1;resizeParentMax=0;resizeLast=0;collapsible=1;marginBottom=0;whiteSpace=wrap;html=1;" vertex="1" parent="1">
          <mxGeometry x="1920" y="570" width="160" height="50" as="geometry" />
        </mxCell>
        <mxCell id="zvkdjGWx2xhCYd6H2U0A-54" value="+analyze(image)" style="text;strokeColor=none;fillColor=none;align=left;verticalAlign=top;spacingLeft=4;spacingRight=4;overflow=hidden;rotatable=0;points=[[0,0.5],[1,0.5]];portConstraint=eastwest;whiteSpace=wrap;html=1;" vertex="1" parent="zvkdjGWx2xhCYd6H2U0A-53">
          <mxGeometry y="26" width="160" height="24" as="geometry" />
        </mxCell>
        <mxCell id="zvkdjGWx2xhCYd6H2U0A-56" value="ReferenceManager" style="swimlane;fontStyle=0;childLayout=stackLayout;horizontal=1;startSize=26;fillColor=none;horizontalStack=0;resizeParent=1;resizeParentMax=0;resizeLast=0;collapsible=1;marginBottom=0;whiteSpace=wrap;html=1;" vertex="1" parent="1">
          <mxGeometry x="2120" y="570" width="160" height="50" as="geometry" />
        </mxCell>
        <mxCell id="zvkdjGWx2xhCYd6H2U0A-57" value="+reference(doctor)" style="text;strokeColor=none;fillColor=none;align=left;verticalAlign=top;spacingLeft=4;spacingRight=4;overflow=hidden;rotatable=0;points=[[0,0.5],[1,0.5]];portConstraint=eastwest;whiteSpace=wrap;html=1;" vertex="1" parent="zvkdjGWx2xhCYd6H2U0A-56">
          <mxGeometry y="26" width="160" height="24" as="geometry" />
        </mxCell>
        <mxCell id="zvkdjGWx2xhCYd6H2U0A-59" value="SetLibrary" style="swimlane;fontStyle=0;childLayout=stackLayout;horizontal=1;startSize=26;fillColor=none;horizontalStack=0;resizeParent=1;resizeParentMax=0;resizeLast=0;collapsible=1;marginBottom=0;whiteSpace=wrap;html=1;" vertex="1" parent="1">
          <mxGeometry x="310" y="680" width="180" height="50" as="geometry" />
        </mxCell>
        <mxCell id="zvkdjGWx2xhCYd6H2U0A-60" value="+checkSetValidity(information)" style="text;strokeColor=none;fillColor=none;align=left;verticalAlign=top;spacingLeft=4;spacingRight=4;overflow=hidden;rotatable=0;points=[[0,0.5],[1,0.5]];portConstraint=eastwest;whiteSpace=wrap;html=1;" vertex="1" parent="zvkdjGWx2xhCYd6H2U0A-59">
          <mxGeometry y="26" width="180" height="24" as="geometry" />
        </mxCell>
        <mxCell id="zvkdjGWx2xhCYd6H2U0A-62" value="BookingLibrary" style="swimlane;fontStyle=0;childLayout=stackLayout;horizontal=1;startSize=26;fillColor=none;horizontalStack=0;resizeParent=1;resizeParentMax=0;resizeLast=0;collapsible=1;marginBottom=0;whiteSpace=wrap;html=1;" vertex="1" parent="1">
          <mxGeometry x="520" y="680" width="170" height="50" as="geometry" />
        </mxCell>
        <mxCell id="zvkdjGWx2xhCYd6H2U0A-63" value="+booking(hospitai,doctor,time)" style="text;strokeColor=none;fillColor=none;align=left;verticalAlign=top;spacingLeft=4;spacingRight=4;overflow=hidden;rotatable=0;points=[[0,0.5],[1,0.5]];portConstraint=eastwest;whiteSpace=wrap;html=1;" vertex="1" parent="zvkdjGWx2xhCYd6H2U0A-62">
          <mxGeometry y="26" width="170" height="24" as="geometry" />
        </mxCell>
      </root>
    </mxGraphModel>
  </diagram>
  <diagram id="Da9E9q5qYlzGkj_Jw1YC" name="第 2 页">
    <mxGraphModel dx="1050" dy="522" grid="1" gridSize="10" guides="1" tooltips="1" connect="1" arrows="1" fold="1" page="1" pageScale="1" pageWidth="827" pageHeight="1169" math="0" shadow="0">
      <root>
        <mxCell id="0" />
        <mxCell id="1" parent="0" />
      </root>
    </mxGraphModel>
  </diagram>
</mxfile>
